<?xml version="1.0" encoding="UTF-8"?>
<svg id="Layer_2" data-name="Layer 2" xmlns="http://www.w3.org/2000/svg" viewBox="0 0 37.51 8.59">
  <defs>
    <style>
      .cls-1 {
        fill: #fff;
      }
    </style>
  </defs>
  <g id="Layer_1-2" data-name="Layer 1">
    <g>
      <path class="cls-1" d="M1.36,8.09c-.26-.25-.4-.6-.4-1.05v-3.26h-.96v-1.38h.96V.58h1.48v1.82h1.38v1.38h-1.38v2.96c0,.14.03.24.09.3.06.06.16.1.31.1h.98v1.33h-1.33c-.49,0-.86-.13-1.13-.38Z"/>
      <path class="cls-1" d="M4.52,2.4h1.26l.12.52h.06c.11-.15.26-.28.44-.37.18-.1.4-.14.67-.14h1.12v1.38h-1.02c-.38,0-.68.1-.88.31-.2.2-.3.5-.3.89v3.49h-1.46V2.4Z"/>
      <path class="cls-1" d="M9.56,8.18c-.47-.27-.84-.65-1.11-1.13-.27-.48-.4-1.02-.4-1.62s.13-1.15.4-1.63c.27-.48.64-.85,1.11-1.12.47-.27,1-.41,1.57-.41s1.06.13,1.52.39c.46.26.82.62,1.08,1.09.26.46.39.98.39,1.55,0,.14,0,.26-.02.37-.01.11-.03.2-.04.25h-4.55c.03.27.12.52.27.74.15.22.34.39.58.51s.49.18.77.18c.31,0,.58-.06.8-.19.22-.13.4-.28.52-.47h1.5c-.1.32-.28.62-.52.91-.24.28-.56.52-.95.71s-.84.28-1.35.28c-.58,0-1.1-.14-1.57-.41ZM12.42,4.19c-.14-.22-.31-.39-.53-.52-.22-.12-.47-.19-.75-.19s-.55.06-.78.19-.42.3-.56.52c-.14.22-.24.46-.28.73h3.14c-.02-.26-.1-.51-.24-.73Z"/>
      <path class="cls-1" d="M14.78.07h1.46v8.4h-1.46V.07Z"/>
      <path class="cls-1" d="M17.3.07h1.46v8.4h-1.46V.07Z"/>
      <path class="cls-1" d="M19.72,0h1.57v1.37h-1.57V0ZM19.76,2.4h1.46v6.07h-1.46V2.4Z"/>
      <path class="cls-1" d="M23.32,8.28c-.36-.21-.65-.51-.85-.89-.2-.39-.31-.83-.31-1.34v-3.65h1.46v3.46c0,.26.06.49.17.69.11.2.27.36.47.48.2.12.42.17.67.17s.49-.06.69-.17c.2-.12.36-.28.48-.49.12-.21.17-.44.17-.68v-3.46h1.48v6.07h-1.27l-.12-.59h-.06c-.16.19-.39.36-.7.5-.31.14-.65.21-1.04.21-.46,0-.88-.1-1.24-.31Z"/>
      <path class="cls-1" d="M28.69,2.4h1.26l.12.58h.06c.14-.18.34-.34.61-.48.27-.14.57-.22.89-.22.41,0,.76.09,1.06.28.3.19.51.39.64.62h.06c.16-.24.41-.45.74-.63.34-.18.72-.27,1.15-.27s.79.1,1.13.31c.34.21.61.5.8.86.2.37.29.78.29,1.25v3.77h-1.48v-3.6c0-.25-.04-.46-.13-.64-.09-.18-.21-.32-.37-.41-.16-.1-.34-.14-.56-.14s-.4.05-.58.16-.31.25-.41.43c-.1.18-.15.39-.15.61v3.6h-1.48v-3.6c0-.25-.04-.46-.13-.64-.09-.18-.21-.32-.37-.41-.16-.1-.34-.14-.55-.14s-.4.05-.58.16-.32.25-.42.43c-.1.18-.16.39-.16.61v3.6h-1.46V2.4Z"/>
    </g>
  </g>
</svg>